<?xml version="1.0" encoding="utf-8"?>
<!-- Generator: Adobe Illustrator 25.1.0, SVG Export Plug-In . SVG Version: 6.00 Build 0)  -->
<svg version="1.1" id="Camada_1" xmlns="http://www.w3.org/2000/svg" xmlns:xlink="http://www.w3.org/1999/xlink" x="0px" y="0px"
	 viewBox="0 0 612.6 120.9" style="enable-background:new 0 0 612.6 120.9;" xml:space="preserve">
<style type="text/css">
	.st0{fill:#5A8FCC;}
	.st1{fill:#3C3C3B;stroke:#3C3C3B;stroke-miterlimit:10;}
</style>
<g>
	<path class="st0" d="M59.3,120.9L59.3,120.9l0-34.3c0-23.9,19.4-43.4,43.4-43.4h0v34.3C102.7,101.4,83.2,120.9,59.3,120.9z"/>
	<path class="st0" d="M48.3,98V48.3C48.3,21.6,26.7,0,0,0h0v49.7C0,76.4,21.6,98,48.3,98L48.3,98z"/>
	<ellipse transform="matrix(0.2314 -0.9729 0.9729 0.2314 38.0813 89.5287)" class="st0" cx="75.7" cy="20.7" rx="16.4" ry="16.4"/>
</g>
<g>
	<path class="st1" d="M153.3,73.7l8.4-3c0.3,2.6,1.4,4.7,3.4,6.4c1.9,1.7,4.5,2.5,7.7,2.5c2.5,0,4.5-0.6,5.9-1.8
		c1.4-1.2,2.2-2.7,2.2-4.5c0-3.2-2-5.2-6.1-6.1l-8.1-1.8c-3.7-0.8-6.6-2.4-8.7-4.7c-2.1-2.4-3.2-5.2-3.2-8.6c0-4.1,1.7-7.6,5-10.6
		c3.3-3,7.3-4.4,11.9-4.4c3,0,5.7,0.4,8.1,1.3c2.4,0.9,4.2,2.1,5.5,3.5c1.3,1.4,2.3,2.8,3,4c0.7,1.3,1.2,2.5,1.5,3.9l-8.2,3.1
		c-0.1-0.8-0.4-1.6-0.7-2.3c-0.3-0.8-0.8-1.6-1.5-2.5c-0.7-0.9-1.7-1.7-3-2.2c-1.3-0.6-2.9-0.8-4.6-0.8c-2.3,0-4.2,0.6-5.7,1.9
		c-1.5,1.3-2.2,2.7-2.2,4.4c0,3,1.8,4.9,5.4,5.7l7.7,1.7c4.2,0.9,7.5,2.6,9.7,5.1c2.3,2.5,3.4,5.5,3.4,9c0,3.8-1.5,7.1-4.6,10.2
		c-3.1,3-7.3,4.5-12.8,4.5c-5.9,0-10.4-1.5-13.7-4.4C155.6,80.2,153.7,77,153.3,73.7z"/>
	<path class="st1" d="M211.5,104.8h-9.2V38.5h9v7.4c1.4-2.5,3.5-4.5,6.2-6.1s6-2.4,9.7-2.4c6.8,0,12.2,2.3,16.1,7
		c3.9,4.7,5.8,10.6,5.8,17.8c0,7.2-2,13.2-6,18c-4,4.7-9.4,7.1-16.1,7.1c-3.5,0-6.6-0.7-9.3-2.2c-2.7-1.4-4.7-3.3-6.1-5.5V104.8z
		 M239.6,62.2c0-4.8-1.3-8.8-3.8-11.9c-2.5-3.1-5.9-4.7-10.2-4.7c-4.2,0-7.6,1.6-10.2,4.7c-2.6,3.1-3.9,7.1-3.9,11.9
		c0,4.9,1.3,9,3.9,12.1c2.6,3.1,6,4.7,10.2,4.7c4.2,0,7.6-1.6,10.2-4.7C238.3,71.2,239.6,67.1,239.6,62.2z"/>
	<path class="st1" d="M258,73.3c0-4.1,1.3-7.4,4-9.8c2.6-2.5,6.1-4,10.5-4.6l12.8-1.9c2.4-0.3,3.7-1.5,3.7-3.6
		c0-2.5-0.9-4.5-2.6-6.1c-1.7-1.6-4.3-2.4-7.7-2.4c-3.2,0-5.7,0.9-7.5,2.6c-1.8,1.7-2.9,4.1-3.3,7l-8.9-2.1
		c0.5-4.5,2.5-8.2,6.2-11.1c3.7-2.9,8.1-4.3,13.2-4.3c6.7,0,11.7,1.6,14.9,4.9c3.2,3.3,4.8,7.4,4.8,12.5v23.8c0,2.8,0.2,5.4,0.6,7.8
		h-9.1c-0.3-2-0.5-4.1-0.5-6.4c-1.3,2.1-3.2,4-5.8,5.5c-2.5,1.6-5.7,2.4-9.5,2.4c-4.7,0-8.5-1.4-11.5-4.2S258,77.1,258,73.3z
		 M275.2,79.7c4.1,0,7.5-1.1,10-3.4c2.5-2.2,3.8-5.8,3.8-10.7v-2.2l-14.5,2.2c-2.1,0.3-3.8,1.1-5,2.3c-1.3,1.2-1.9,2.8-1.9,4.8
		c0,1.8,0.7,3.5,2.1,4.8C271,79,272.8,79.7,275.2,79.7z"/>
	<path class="st1" d="M332.5,45.6c-4,0-7.4,1.4-10.2,4.3c-2.8,2.9-4.2,7-4.2,12.2c0,5.2,1.4,9.3,4.2,12.2c2.8,3,6.2,4.4,10.3,4.4
		c4,0,7-1,9-3c2.1-2,3.5-4.2,4.2-6.8l8.2,3.6c-1.3,4-3.8,7.4-7.5,10.4s-8.3,4.4-14,4.4c-6.9,0-12.6-2.4-17.2-7.2
		c-4.5-4.8-6.8-10.8-6.8-18.1c0-7.4,2.3-13.4,6.8-18.1c4.5-4.7,10.2-7.1,17.1-7.1c5.8,0,10.5,1.5,14.1,4.4c3.6,3,5.9,6.5,7.1,10.7
		l-8.4,3.6c-0.7-2.8-2.1-5.1-4.1-7.1C339.1,46.6,336.2,45.6,332.5,45.6z"/>
	<path class="st1" d="M397.8,69.7l8,2.8c-1.4,4.4-4,8-7.7,10.8c-3.8,2.8-8.3,4.2-13.6,4.2c-6.7,0-12.3-2.3-16.9-6.9
		c-4.6-4.6-7-10.8-7-18.5c0-7.2,2.2-13.2,6.7-18c4.5-4.7,9.8-7.1,16-7.1c7.2,0,12.8,2.3,16.8,6.8c4,4.5,6,10.6,6,18.1
		c0,1.2-0.1,2.2-0.2,3h-35.8c0.1,4.2,1.5,7.7,4.2,10.4c2.7,2.7,6.1,4,10.1,4C391.3,79.3,395.7,76.1,397.8,69.7z M370.5,57.4h26
		c-0.1-3.6-1.3-6.5-3.6-8.7c-2.2-2.3-5.4-3.4-9.5-3.4c-3.7,0-6.7,1.2-9.1,3.6C372,51.2,370.7,54.1,370.5,57.4z"/>
	<path class="st1" d="M427.2,104.8H418V38.5h9v7.4c1.4-2.5,3.5-4.5,6.2-6.1s6-2.4,9.7-2.4c6.8,0,12.2,2.3,16.1,7
		c3.9,4.7,5.8,10.6,5.8,17.8c0,7.2-2,13.2-6,18c-4,4.7-9.4,7.1-16.1,7.1c-3.5,0-6.6-0.7-9.3-2.2c-2.7-1.4-4.7-3.3-6.1-5.5V104.8z
		 M455.2,62.2c0-4.8-1.3-8.8-3.8-11.9c-2.5-3.1-5.9-4.7-10.2-4.7c-4.2,0-7.6,1.6-10.2,4.7c-2.6,3.1-3.9,7.1-3.9,11.9
		c0,4.9,1.3,9,3.9,12.1c2.6,3.1,6,4.7,10.2,4.7c4.2,0,7.6-1.6,10.2-4.7C453.9,71.2,455.2,67.1,455.2,62.2z"/>
	<path class="st1" d="M473.6,73.3c0-4.1,1.3-7.4,4-9.8c2.6-2.5,6.1-4,10.5-4.6l12.8-1.9c2.4-0.3,3.7-1.5,3.7-3.6
		c0-2.5-0.9-4.5-2.6-6.1c-1.7-1.6-4.3-2.4-7.7-2.4c-3.2,0-5.7,0.9-7.5,2.6c-1.8,1.7-2.9,4.1-3.3,7l-8.9-2.1
		c0.5-4.5,2.5-8.2,6.2-11.1c3.7-2.9,8.1-4.3,13.2-4.3c6.7,0,11.7,1.6,14.9,4.9c3.2,3.3,4.8,7.4,4.8,12.5v23.8c0,2.8,0.2,5.4,0.6,7.8
		h-9.1c-0.3-2-0.5-4.1-0.5-6.4c-1.3,2.1-3.2,4-5.8,5.5c-2.5,1.6-5.7,2.4-9.5,2.4c-4.7,0-8.5-1.4-11.5-4.2S473.6,77.1,473.6,73.3z
		 M490.8,79.7c4.1,0,7.5-1.1,10-3.4c2.5-2.2,3.8-5.8,3.8-10.7v-2.2L490,65.7c-2.1,0.3-3.8,1.1-5,2.3c-1.3,1.2-1.9,2.8-1.9,4.8
		c0,1.8,0.7,3.5,2.1,4.8C486.6,79,488.5,79.7,490.8,79.7z"/>
	<path class="st1" d="M554.6,38v9.9c-1.4-0.2-2.7-0.3-4-0.3c-8.7,0-13,4.9-13,14.6V86h-9.3V38.5h9.1v8.3c2.9-6.1,7.6-9.1,14.2-9.1
		C552.6,37.7,553.6,37.8,554.6,38z"/>
	<path class="st1" d="M607,38.5l-20.2,20.1L607.4,86h-11.7l-15.5-20.9l-6.6,6.6V86h-9.2V14.5h9.2v45l20.5-21H607z"/>
</g>
</svg>
